<svg xmlns="http://www.w3.org/2000/svg" viewBox="0 0 502.56 132.53"><defs><style>.cls-1{fill:#fbfbff;}.cls-2{fill:#ff2847;}</style></defs><title>logo-svg</title><g id="Layer_2" data-name="Layer 2"><g id="Layer_1-2" data-name="Layer 1"><path class="cls-1" d="M223,72.54V107.7H203.08V76c0-6.2-3-11.6-9.77-11.6s-9.54,5.4-9.54,11.6V107.7H163.89V26.11h13.27a6.61,6.61,0,0,1,6.61,6.61V55c3.45-4.82,9.08-8.16,17-8.16C212.85,46.79,223,54.26,223,72.54Z"/><path class="cls-1" d="M230.2,77.82c0-20.34,16.2-31,31.95-31S294,57.48,294,77.82s-16.2,31-31.83,31S230.2,98.16,230.2,77.82Zm44.24,0c0-7.93-5.51-13.21-12.29-13.21s-12.41,5.28-12.41,13.21S255.25,91,262.15,91,274.44,85.75,274.44,77.82Z"/><path class="cls-1" d="M327,87.13l-5.86,6.55v14H301.22V26.11h13.27a6.61,6.61,0,0,1,6.61,6.61V68.28l17.47-20.34h23.56l-23,25.52,25.4,34.24H342.82Z"/><path class="cls-1" d="M427.4,54.56V107.7H407.52v-7c-3.45,4.83-9.08,8.16-17.12,8.16-11.95,0-22.06-7.47-22.06-25.74V47.94h19.88V79.66c0,6.21,3,11.61,9.76,11.61,6.55,0,9.54-5.4,9.54-11.61V47.94h13.27A6.62,6.62,0,0,1,427.4,54.56Z"/><path class="cls-1" d="M502.56,77.82c0,20.92-14.94,31-28.38,31-10.35,0-16-5.74-16.44-6.78h-.34v27.47H437.52V47.94H457.4v5.63h.34c.46-1,6.09-6.78,16.44-6.78C487.62,46.79,502.56,56.91,502.56,77.82Zm-19.54,0c0-8.39-6.09-13.44-13-13.44-7.13,0-13.1,4.94-13.1,13.44s6,13.45,13.1,13.45C476.93,91.27,483,86.21,483,77.82Z"/><path class="cls-2" d="M122.47,0H93A10.23,10.23,0,0,0,82.78,10.22V19A14.43,14.43,0,0,0,97.21,33.38h35.48V10.22A10.22,10.22,0,0,0,122.47,0Z"/><path class="cls-2" d="M35.49,100.27H0v25a7.21,7.21,0,0,0,7.21,7.21H42.7a7.21,7.21,0,0,0,7.21-7.21V114.69A14.43,14.43,0,0,0,35.49,100.27Z"/><path class="cls-2" d="M118.27,66.14h-19l-38.86.09A10.44,10.44,0,0,1,49.91,55.79V14.43A14.43,14.43,0,0,0,35.49,0H10.22A10.23,10.23,0,0,0,0,10.22V52A14.42,14.42,0,0,0,14.43,66.38h25A10.45,10.45,0,0,1,49.91,76.83l0,7.87a11.43,11.43,0,0,0,.63,3.71A16.78,16.78,0,0,0,66.5,99.32h6.61a10.39,10.39,0,0,1,9.67,8.87v9.91a14.43,14.43,0,0,0,14.43,14.43h35.48v-52A14.43,14.43,0,0,0,118.27,66.14Z"/></g></g></svg>