{
    "asset" : {
        "generator" : "Khronos glTF Blender I/O v1.6.16",
        "version" : "2.0"
    },
    "scene" : 0,
    "scenes" : [
        {
            "name" : "Scene",
            "nodes" : [
                0,
                1,
                2,
                3
            ]
        }
    ],
    "nodes" : [
        {
            "mesh" : 0,
            "name" : "casephone",
            "rotation" : [
                0.7071068286895752,
                0,
                0,
                0.7071067094802856
            ]
        },
        {
            "mesh" : 1,
            "name" : "vidro",
            "rotation" : [
                0.7071068286895752,
                0,
                0,
                0.7071067094802856
            ]
        },
        {
            "mesh" : 2,
            "name" : "detail",
            "rotation" : [
                0.7071068286895752,
                0,
                0,
                0.7071067094802856
            ]
        },
        {
            "mesh" : 3,
            "name" : "tela",
            "rotation" : [
                0.7071068286895752,
                0,
                0,
                0.7071067094802856
            ]
        }
    ],
    "materials" : [
        {
            "doubleSided" : true,
            "name" : "lambert1",
            "pbrMetallicRoughness" : {
                "baseColorFactor" : [
                    0.5,
                    0.5,
                    0.5,
                    1
                ],
                "metallicFactor" : 0,
                "roughnessFactor" : 0.5527864098548889
            }
        },
        {
            "doubleSided" : true,
            "name" : "blinn1",
            "pbrMetallicRoughness" : {
                "baseColorFactor" : [
                    0.4359999895095825,
                    0.48276907205581665,
                    0.5,
                    1
                ],
                "metallicFactor" : 0.5,
                "roughnessFactor" : 0.7487671971321106
            }
        }
    ],
    "meshes" : [
        {
            "name" : "Mesh.005",
            "primitives" : [
                {
                    "attributes" : {
                        "POSITION" : 0,
                        "NORMAL" : 1,
                        "TEXCOORD_0" : 2
                    },
                    "indices" : 3,
                    "material" : 0
                }
            ]
        },
        {
            "name" : "Mesh.006",
            "primitives" : [
                {
                    "attributes" : {
                        "POSITION" : 4,
                        "NORMAL" : 5,
                        "TEXCOORD_0" : 6
                    },
                    "indices" : 7,
                    "material" : 1
                }
            ]
        },
        {
            "name" : "Mesh.007",
            "primitives" : [
                {
                    "attributes" : {
                        "POSITION" : 8,
                        "NORMAL" : 9,
                        "TEXCOORD_0" : 10
                    },
                    "indices" : 11,
                    "material" : 0
                }
            ]
        },
        {
            "name" : "Mesh.008",
            "primitives" : [
                {
                    "attributes" : {
                        "POSITION" : 12,
                        "NORMAL" : 13,
                        "TEXCOORD_0" : 14
                    },
                    "indices" : 7,
                    "material" : 0
                }
            ]
        }
    ],
    "accessors" : [
        {
            "bufferView" : 0,
            "componentType" : 5126,
            "count" : 368,
            "max" : [
                2.5279080867767334,
                4.509970188140869,
                0.26446598768234253
            ],
            "min" : [
                -2.5279080867767334,
                -4.509970188140869,
                -0.23846900463104248
            ],
            "type" : "VEC3"
        },
        {
            "bufferView" : 1,
            "componentType" : 5126,
            "count" : 368,
            "type" : "VEC3"
        },
        {
            "bufferView" : 2,
            "componentType" : 5126,
            "count" : 368,
            "type" : "VEC2"
        },
        {
            "bufferView" : 3,
            "componentType" : 5123,
            "count" : 1068,
            "type" : "SCALAR"
        },
        {
            "bufferView" : 4,
            "componentType" : 5126,
            "count" : 20,
            "max" : [
                2.2627243995666504,
                4.240136623382568,
                0.23167333006858826
            ],
            "min" : [
                -2.2627243995666504,
                -4.240136623382568,
                0.23167333006858826
            ],
            "type" : "VEC3"
        },
        {
            "bufferView" : 5,
            "componentType" : 5126,
            "count" : 20,
            "type" : "VEC3"
        },
        {
            "bufferView" : 6,
            "componentType" : 5126,
            "count" : 20,
            "type" : "VEC2"
        },
        {
            "bufferView" : 7,
            "componentType" : 5123,
            "count" : 54,
            "type" : "SCALAR"
        },
        {
            "bufferView" : 8,
            "componentType" : 5126,
            "count" : 118,
            "max" : [
                0.5,
                4.394961833953857,
                0.3031408488750458
            ],
            "min" : [
                -0.5,
                4.2948503494262695,
                0.22467656433582306
            ],
            "type" : "VEC3"
        },
        {
            "bufferView" : 9,
            "componentType" : 5126,
            "count" : 118,
            "type" : "VEC3"
        },
        {
            "bufferView" : 10,
            "componentType" : 5126,
            "count" : 118,
            "type" : "VEC2"
        },
        {
            "bufferView" : 11,
            "componentType" : 5123,
            "count" : 276,
            "type" : "SCALAR"
        },
        {
            "bufferView" : 12,
            "componentType" : 5126,
            "count" : 20,
            "max" : [
                2.251983642578125,
                4.2200093269348145,
                0.16076035797595978
            ],
            "min" : [
                -2.251983642578125,
                -4.2200093269348145,
                0.16076035797595978
            ],
            "type" : "VEC3"
        },
        {
            "bufferView" : 13,
            "componentType" : 5126,
            "count" : 20,
            "type" : "VEC3"
        },
        {
            "bufferView" : 14,
            "componentType" : 5126,
            "count" : 20,
            "type" : "VEC2"
        }
    ],
    "bufferViews" : [
        {
            "buffer" : 0,
            "byteLength" : 4416,
            "byteOffset" : 0
        },
        {
            "buffer" : 0,
            "byteLength" : 4416,
            "byteOffset" : 4416
        },
        {
            "buffer" : 0,
            "byteLength" : 2944,
            "byteOffset" : 8832
        },
        {
            "buffer" : 0,
            "byteLength" : 2136,
            "byteOffset" : 11776
        },
        {
            "buffer" : 0,
            "byteLength" : 240,
            "byteOffset" : 13912
        },
        {
            "buffer" : 0,
            "byteLength" : 240,
            "byteOffset" : 14152
        },
        {
            "buffer" : 0,
            "byteLength" : 160,
            "byteOffset" : 14392
        },
        {
            "buffer" : 0,
            "byteLength" : 108,
            "byteOffset" : 14552
        },
        {
            "buffer" : 0,
            "byteLength" : 1416,
            "byteOffset" : 14660
        },
        {
            "buffer" : 0,
            "byteLength" : 1416,
            "byteOffset" : 16076
        },
        {
            "buffer" : 0,
            "byteLength" : 944,
            "byteOffset" : 17492
        },
        {
            "buffer" : 0,
            "byteLength" : 552,
            "byteOffset" : 18436
        },
        {
            "buffer" : 0,
            "byteLength" : 240,
            "byteOffset" : 18988
        },
        {
            "buffer" : 0,
            "byteLength" : 240,
            "byteOffset" : 19228
        },
        {
            "buffer" : 0,
            "byteLength" : 160,
            "byteOffset" : 19468
        }
    ],
    "buffers" : [
        {
            "byteLength" : 19628,
            "uri" : "data:application/octet-stream;base64,"
        }
    ]
}
